<svg xmlns="http://www.w3.org/2000/svg" class="_1OHL9T2GNGBdecmEGDGG3N _1iaFOONmveVm546nOuza3U _3D0LdvUu_skVDCcreGliJi" width="1024px" height="1024px" viewBox="0 0 1024 1024" enable-background="new 0 0 1024 1024">
	<path d="M8.386 6.665a.625.625 0 01.105.878l-3.144 4a.625.625 0 01-.94.05L2.553 9.687a.625.625 0 01.896-.873l1.357 1.394L7.51 6.77a.625.625 0 01.877-.105zM10.766 7.633c0-.345.28-.625.625-.625h8a.625.625 0 110 1.25h-8a.625.625 0 01-.625-.625zM10.766 12.637c0-.345.28-.625.625-.625h8a.625.625 0 110 1.25h-8a.625.625 0 01-.625-.625zM11.39 17.009a.625.625 0 100 1.25h8a.625.625 0 100-1.25h-8zM8.491 14.386a.625.625 0 00-.982-.772l-2.704 3.439-1.357-1.394a.625.625 0 00-.896.872l1.856 1.905a.625.625 0 00.939-.05l3.144-4z"></path>
</svg>